<svg width="24" height="24" viewBox="0 0 24 24" fill="none" xmlns="http://www.w3.org/2000/svg">
<path d="M9.36701 3.31299L10.227 5.33999C10.601 6.22299 10.394 7.26199 9.71301 7.90799L7.81901 9.706C7.93501 10.782 8.29701 11.841 8.90301 12.883C9.47875 13.8912 10.251 14.7737 11.174 15.478L13.449 14.719C14.312 14.432 15.251 14.762 15.779 15.539L17.012 17.349C17.627 18.253 17.517 19.499 16.754 20.266L15.936 21.086C15.122 21.904 13.959 22.2 12.884 21.865C10.345 21.073 8.01101 18.721 5.88101 14.811C3.74801 10.895 2.99501 7.57199 3.62301 4.84299C3.88701 3.69499 4.70401 2.77999 5.77201 2.43899L6.84801 2.09499C7.85801 1.77299 8.93501 2.29399 9.36801 3.31299H9.36701ZM17.148 2.00299L17.25 1.99699C17.4314 1.99676 17.6068 2.06229 17.7436 2.18143C17.8804 2.30058 17.9693 2.46527 17.994 2.64499L18 2.74699V6.00099H21.252C21.4334 6.00104 21.6086 6.06681 21.7452 6.18614C21.8818 6.30547 21.9706 6.47026 21.995 6.64999L22.002 6.75199C22.002 6.93323 21.9364 7.10834 21.8172 7.24493C21.6981 7.38151 21.5336 7.47035 21.354 7.49499L21.252 7.50199H18V10.75C18 10.9312 17.9344 11.1063 17.8152 11.2429C17.6961 11.3795 17.5316 11.4683 17.352 11.493L17.25 11.5C17.0688 11.5 16.8937 11.4344 16.7571 11.3152C16.6205 11.1961 16.5317 11.0315 16.507 10.852L16.5 10.75V7.50099H13.249C13.0676 7.50123 12.8923 7.4357 12.7555 7.31656C12.6187 7.19741 12.5297 7.03272 12.505 6.85299L12.499 6.75199C12.499 6.57076 12.5647 6.39565 12.6838 6.25906C12.8029 6.12248 12.9675 6.03364 13.147 6.00899L13.249 6.00199H16.499L16.5 2.74699C16.5 2.56576 16.5657 2.39065 16.6848 2.25406C16.8039 2.11748 16.9685 2.02764 17.148 2.00299Z" fill="#212121"/>
</svg>
