<svg width="24" height="24" viewBox="0 0 24 24" fill="none" xmlns="http://www.w3.org/2000/svg">
<g clip-path="url(#clip0_22_10)">
<path d="M16 16.25C16 17.112 15.6576 17.9386 15.0481 18.5481C14.4386 19.1576 13.612 19.5 12.75 19.5H12.687C13.1332 18.1221 13.1065 16.6347 12.611 15.2737C12.1156 13.9128 11.1798 12.7563 9.95213 11.9878C8.7245 11.2193 7.27537 10.8829 5.83472 11.0318C4.39407 11.1808 3.04443 11.8066 2 12.81V7.75C2 6.88805 2.34241 6.0614 2.9519 5.4519C3.5614 4.84241 4.38805 4.5 5.25 4.5H12.75C13.612 4.5 14.4386 4.84241 15.0481 5.4519C15.6576 6.0614 16 6.88805 16 7.75V16.25ZM21.762 5.893C21.9157 6.0739 22.0001 6.3036 22 6.541V17.459C22.0001 17.65 21.9455 17.837 21.8426 17.9979C21.7398 18.1588 21.593 18.2869 21.4197 18.367C21.2464 18.4472 21.0537 18.476 20.8645 18.4501C20.6753 18.4243 20.4974 18.3447 20.352 18.221L17 15.37V8.628L20.352 5.779C20.4521 5.69387 20.5679 5.62929 20.6929 5.58894C20.8179 5.5486 20.9497 5.53328 21.0806 5.54387C21.2116 5.55445 21.3391 5.59074 21.456 5.65064C21.573 5.71055 21.6769 5.7929 21.762 5.893ZM12 17.5C12 16.7777 11.8577 16.0625 11.5813 15.3952C11.3049 14.728 10.8998 14.1216 10.3891 13.6109C9.87837 13.1002 9.27205 12.6951 8.60476 12.4187C7.93747 12.1423 7.22227 12 6.5 12C5.77773 12 5.06253 12.1423 4.39524 12.4187C3.72795 12.6951 3.12163 13.1002 2.61091 13.6109C2.10019 14.1216 1.69506 14.728 1.41866 15.3952C1.14226 16.0625 1 16.7777 1 17.5C1 18.9587 1.57946 20.3576 2.61091 21.3891C3.64236 22.4205 5.04131 23 6.5 23C7.95869 23 9.35764 22.4205 10.3891 21.3891C11.4205 20.3576 12 18.9587 12 17.5ZM7 18L7.001 20.503C7.001 20.6356 6.94832 20.7628 6.85455 20.8566C6.76079 20.9503 6.63361 21.003 6.501 21.003C6.36839 21.003 6.24121 20.9503 6.14745 20.8566C6.05368 20.7628 6.001 20.6356 6.001 20.503V18H3.496C3.36339 18 3.23621 17.9473 3.14245 17.8536C3.04868 17.7598 2.996 17.6326 2.996 17.5C2.996 17.3674 3.04868 17.2402 3.14245 17.1464C3.23621 17.0527 3.36339 17 3.496 17H6V14.5C6 14.3674 6.05268 14.2402 6.14645 14.1464C6.24021 14.0527 6.36739 14 6.5 14C6.63261 14 6.75979 14.0527 6.85355 14.1464C6.94732 14.2402 7 14.3674 7 14.5V17H9.497C9.62961 17 9.75679 17.0527 9.85055 17.1464C9.94432 17.2402 9.997 17.3674 9.997 17.5C9.997 17.6326 9.94432 17.7598 9.85055 17.8536C9.75679 17.9473 9.62961 18 9.497 18H7Z" fill="#212121"/>
</g>
<defs>
<clipPath id="clip0_22_10">
<rect width="24" height="24" fill="white"/>
</clipPath>
</defs>
</svg>
