<svg width="24" height="24" viewBox="0 0 24 24" fill="none" xmlns="http://www.w3.org/2000/svg">
<path d="M18 21C18.2449 21 18.4813 20.91 18.6644 20.7473C18.8474 20.5845 18.9643 20.3603 18.993 20.117L19 20L19 4C18.9997 3.74512 18.9021 3.49997 18.7272 3.31463C18.5522 3.1293 18.313 3.01776 18.0586 3.00283C17.8042 2.98789 17.5536 3.07067 17.3582 3.23426C17.1627 3.39785 17.0371 3.6299 17.007 3.883L17 4L17 20C17 20.2652 17.1054 20.5196 17.2929 20.7071C17.4804 20.8946 17.7348 21 18 21ZM5.293 20.707C5.46519 20.8792 5.69429 20.9826 5.93732 20.9979C6.18034 21.0132 6.4206 20.9393 6.613 20.79L6.707 20.707L14.707 12.707C14.8792 12.5348 14.9826 12.3057 14.9979 12.0627C15.0132 11.8197 14.9393 11.5794 14.79 11.387L14.707 11.293L6.707 3.293C6.52704 3.11365 6.28557 3.00953 6.03162 3.00177C5.77767 2.99402 5.53029 3.08321 5.33972 3.25125C5.14916 3.41928 5.0297 3.65355 5.0056 3.90647C4.98151 4.1594 5.05459 4.41201 5.21 4.613L5.293 4.707L12.586 12L5.293 19.293C5.10553 19.4805 5.00021 19.7348 5.00021 20C5.00021 20.2652 5.10553 20.5195 5.293 20.707Z" fill="white"/>
</svg>
