<svg width="60" height="60" viewBox="0 0 60 60" fill="none" xmlns="http://www.w3.org/2000/svg">
<rect width="60" height="60" rx="30" fill="#DFDFDF"/>
<path d="M38.1515 32.8333C38.57 32.8332 38.9845 32.9154 39.3712 33.0755C39.7579 33.2355 40.1093 33.4701 40.4053 33.766C40.7013 34.0619 40.9361 34.4132 41.0963 34.7998C41.2565 35.1865 41.339 35.6009 41.339 36.0194V37.3199C41.3388 38.1323 41.0847 38.9243 40.6122 39.5852C38.4221 42.6494 34.845 44.1667 30 44.1667C25.1521 44.1667 21.5779 42.648 19.3934 39.5809C18.9235 38.9211 18.671 38.1313 18.6709 37.3213V36.018C18.6707 35.5995 18.753 35.185 18.913 34.7983C19.0731 34.4116 19.3077 34.0602 19.6036 33.7642C19.8995 33.4682 20.2507 33.2334 20.6374 33.0732C21.024 32.913 21.4385 32.8305 21.857 32.8305H38.1501L38.1515 32.8333ZM30 15.839C31.8786 15.839 33.6803 16.5853 35.0087 17.9137C36.337 19.242 37.0833 21.0437 37.0833 22.9223C37.0833 24.801 36.337 26.6026 35.0087 27.931C33.6803 29.2594 31.8786 30.0057 30 30.0057C28.1214 30.0057 26.3197 29.2594 24.9913 27.931C23.6629 26.6026 22.9166 24.801 22.9166 22.9223C22.9166 21.0437 23.6629 19.242 24.9913 17.9137C26.3197 16.5853 28.1214 15.839 30 15.839Z" fill="#212121"/>
</svg>
